#!OML:ASF H:\Terrain\Walking\May29\JustinRory\rory.ASF
:FULLY-SPECIFIED
:DEGREES
1852
root 17.6427 18.043 -19.4511 -359.13 -49.6828 6.94407
lowerback 5.21657 -0.841349 -7.6624
upperback 3.39184 -1.47525 0.0654572
thorax 0.79031 -0.882128 4.42988
lowerneck -4.06353 8.1653 3.16158
upperneck 3.95005 10.9109 -3.92869
head 2.37616 5.38545 -1.39656
rclavicle -6.55244e-014 -2.88238e-015
rhumerus -48.5073 -22.4911 -61.0116
rradius 34.3781
rwrist 3.70593
rhand -21.5143 32.5694
rfingers 7.12502
rthumb 4.87774 2.64553
lclavicle -6.55244e-014 -2.88238e-015
lhumerus -22.2472 5.24278 69.7997
lradius 34.9475
lwrist 2.27345
lhand -22.6467 20.3546
lfingers 7.12502
lthumb 3.7843 50.3007
rfemur -30.5776 8.23653 14.8394
rtibia 31.8645
rfoot -14.6145 0.799469
rtoes -14.1589
lfemur -11.2803 -3.5363 -24.6229
ltibia 23.8075
lfoot -18.4298 -3.72866
ltoes 12
1853
root 17.6935 18.0572 -19.4998 -359.007 -50.0082 6.7249
lowerback 5.21956 -0.791535 -7.50675
upperback 3.49304 -1.4002 0.128473
thorax 0.880678 -0.849665 4.40388
lowerneck -4.27544 8.18154 3.34427
upperneck 4.28008 10.9502 -4.34378
head 2.56872 5.39088 -1.54155
rclavicle 4.82301e-014 -1.5207e-014
rhumerus -48.3704 -22.0108 -61.456
rradius 34.5012
rwrist 3.13242
rhand -20.4092 32.1244
rfingers 7.12502
rthumb 5.94481 2.22784
lclavicle 4.82301e-014 -1.5207e-014
lhumerus -22.1436 5.50147 69.9211
lradius 35.4567
lwrist 2.06029
lhand -22.5233 20.3169
lfingers 7.12502
lthumb 3.90347 50.2608
rfemur -30.4906 8.29926 14.9389
rtibia 31.8628
rfoot -14.5327 -0.672859
rtoes -14.6643
lfemur -11.5159 -3.95731 -24.487
ltibia 23.9269
lfoot -18.607 -2.63189
ltoes 10.2448
1854
root 17.7362 18.0666 -19.552 -359.031 -50.4231 6.80066
lowerback 5.18566 -0.717145 -7.60652
upperback 3.51623 -1.3021 0.159767
thorax 0.914751 -0.804951 4.48795
lowerneck -4.59017 8.18477 3.34907
upperneck 4.75795 10.9737 -4.51913
head 2.80195 5.38797 -1.57521
rclavicle 1.00436e-013 -9.93923e-016
rhumerus -48.2051 -21.8279 -61.6699
rradius 34.2782
rwrist 3.33846
rhand -19.7427 32.6343
rfingers 7.12502
rthumb 6.58817 2.75674
lclavicle 1.00436e-013 -9.93923e-016
lhumerus -22.057 5.77541 69.9589
lradius 36.1165
lwrist 2.5967
lhand -21.302 19.9231
lfingers 7.12502
lthumb 5.0828 49.8421
rfemur -30.4896 8.64579 14.7385
rtibia 31.927
rfoot -14.5818 -1.78655
rtoes -13.5653
lfemur -11.83 -4.1397 -24.5231
ltibia 24.0187
lfoot -18.6732 -1.68486
ltoes 8.41508
1855
root 17.7718 18.07 -19.5987 -359.004 -50.7619 6.43869
lowerback 5.54151 -0.654374 -7.2979
upperback 3.49039 -1.23723 0.260971
thorax 0.673962 -0.758991 4.42509
lowerneck -4.33341 8.09427 2.8861
upperneck 4.78711 10.8826 -4.43244
head 2.72286 5.33942 -1.4852
rclavicle 5.76972e-014 5.06901e-015
rhumerus -48.3484 -21.4169 -61.7229
rradius 34.0888
rwrist 3.99987
rhand -19.7694 33.0704
rfingers 7.12502
rthumb 6.5624 3.19203
lclavicle 5.76972e-014 5.06901e-015
lhumerus -21.9413 6.02328 69.9923
lradius 36.786
lwrist 4.22688
lhand -19.8742 21.7632
lfingers 7.12502
lthumb 6.46128 51.6447
rfemur -30.0935 9.00427 14.8978
rtibia 32.095
rfoot -14.7028 -2.85406
rtoes -10.8309
lfemur -11.7321 -4.58911 -24.2513
ltibia 24.0381
lfoot -19.0014 -0.805277
ltoes 8.17085
1856
root 17.8053 18.0747 -19.6388 -359.152 -51.1758 6.16844
lowerback 6.06218 -0.49752 -6.86508
upperback 3.42423 -1.05377 0.196249
thorax 0.278372 -0.644656 4.11628
lowerneck -4.00917 8.01979 2.84564
upperneck 4.82673 10.7932 -4.46292
head 2.67259 5.29691 -1.50539
rclavicle 3.62037e-014 1.97791e-014
rhumerus -48.7764 -20.9923 -61.914
rradius 34.1667
rwrist 4.12245
rhand -19.0025 34.117
rfingers 7.12502
rthumb 7.30274 4.26302
lclavicle 3.62037e-014 1.97791e-014
lhumerus -22.1384 5.65244 69.996
lradius 37.6822
lwrist 5.72581
lhand -20.0846 23.2941
lfingers 7.12502
lthumb 6.25812 53.1817
rfemur -29.5307 9.42866 14.9881
rtibia 32.3098
rfoot -14.8903 -4.07693
rtoes -7.25571
lfemur -11.4949 -5.05889 -24.07
ltibia 24.0901
lfoot -19.3903 0.295138
ltoes 7.37005
1857
root 17.8437 18.0771 -19.6824 -359.281 -51.7959 6.21352
lowerback 5.82959 -0.497624 -7.0172
upperback 3.62548 -1.03811 0.341167
thorax 0.622301 -0.659343 4.34559
lowerneck -4.15955 8.26373 2.6619
upperneck 4.92488 11.1508 -4.75982
head 2.75705 5.45867 -1.54446
rclavicle -2.90723e-014 -8.94531e-015
rhumerus -48.1243 -20.0055 -62.3948
rradius 34.1463
rwrist 4.13868
rhand -17.9398 34.9567
rfingers 7.12502
rthumb 8.32846 5.14091
lclavicle -2.90723e-014 -8.94531e-015
lhumerus -22.3929 6.48274 70.1413
lradius 38.5907
lwrist 5.89411
lhand -21.0408 22.3018
lfingers 7.12502
lthumb 5.33499 52.2147
rfemur -29.3585 9.62855 14.8733
rtibia 32.5799
rfoot -15.0314 -4.90681
rtoes -5.01555
lfemur -11.5925 -5.1544 -24.0739
ltibia 24.149
lfoot -19.5235 0.824987
ltoes 11.7318
1858
root 17.8805 18.0783 -19.7302 -359.186 -52.3905 6.13671
lowerback 5.85663 -0.451255 -7.06724
upperback 3.49756 -0.983277 0.471767
thorax 0.47123 -0.624363 4.50925
lowerneck -4.07772 8.44152 2.54853
upperneck 5.24409 11.416 -4.87486
head 2.86189 5.58047 -1.54696
rclavicle 1.13804e-014 3.18055e-015
rhumerus -47.9894 -19.2083 -62.5018
rradius 33.9562
rwrist 5.073
rhand -17.1198 34.9872
rfingers 7.12502
rthumb 9.11973 5.20442
lclavicle 1.13804e-014 3.18055e-015
lhumerus -24.23 6.53367 70.2333
lradius 40.6657
lwrist 6.40906
lhand -21.0475 21.0983
lfingers 7.12502
lthumb 5.32845 51.0113
rfemur -29.3887 9.59391 14.8823
rtibia 32.9697
rfoot -15.0598 -5.72187
rtoes -3.98123
lfemur -11.8127 -4.85832 -23.9496
ltibia 24.1226
lfoot -19.4752 1.03877
ltoes 11.9889
1859
root 17.9145 18.0832 -19.7734 -359.354 -52.8005 6.43794
lowerback 5.85139 -0.391025 -7.25769
upperback 3.41921 -0.914088 0.453754
thorax 0.387792 -0.586852 4.59521
lowerneck -4.23576 8.57395 2.78974
upperneck 5.65573 11.6091 -5.10826
head 3.07537 5.66452 -1.63729
rclavicle 5.24792e-014 -1.64991e-014
rhumerus -47.8495 -19.044 -62.5219
rradius 33.737
rwrist 6.31888
rhand -16.5638 34.9127
rfingers 7.12502
rthumb 9.65625 5.15406
lclavicle 5.24792e-014 -1.64991e-014
lhumerus -27.4358 6.13574 70.5369
lradius 44.1728
lwrist 6.64066
lhand -21.1602 20.5181
lfingers 7.12502
lthumb 5.21972 50.4339
rfemur -29.4493 9.4544 14.5899
rtibia 33.4422
rfoot -14.7615 -7.00095
rtoes -4.6819
lfemur -12.0363 -4.76371 -24.0931
ltibia 24.078
lfoot -19.5677 1.41284
ltoes 12.2725
1860
root 17.9453 18.0855 -19.808 -360.003 -53.1791 7.12194
lowerback 5.67738 -0.321437 -7.5241
upperback 3.59465 -0.816955 0.314281
thorax 0.657906 -0.557703 4.59075
lowerneck -4.47736 8.6774 3.07178
upperneck 5.87856 11.7609 -5.45776
head 3.25287 5.72664 -1.77433
rclavicle -3.84151e-014 3.02153e-014
rhumerus -47.4755 -18.6001 -62.9811
rradius 33.7892
rwrist 6.55535
rhand -16.8044 34.604
rfingers 7.12502
rthumb 9.42405 4.83474
lclavicle -3.84151e-014 3.02153e-014
lhumerus -30.5851 6.7332 71.3153
lradius 47.6879
lwrist 4.86625
lhand -22.7213 19.5154
lfingers 7.12502
lthumb 3.71221 49.4628
rfemur -29.2485 9.25019 14.0415
rtibia 33.9204
rfoot -14.3265 -7.93687
rtoes -6.18314
lfemur -12.045 -4.94537 -24.5277
ltibia 24.0991
lfoot -19.8622 2.07327
ltoes 11.7068
1861
root 17.9711 18.0786 -19.8501 -360.512 -53.5908 7.41009
lowerback 5.78002 -0.289331 -7.64857
upperback 3.6946 -0.78781 0.294662
thorax 0.703415 -0.550978 4.63958
lowerneck -4.01028 8.661 3.03929
upperneck 5.57802 11.7518 -5.72501
head 3.08065 5.72551 -1.88264
rclavicle -7.5886e-014 7.55382e-015
rhumerus -47.1499 -17.5612 -63.6169
rradius 33.8285
rwrist 6.36089
rhand -16.9274 34.8855
rfingers 7.12502
rthumb 9.3054 5.11091
lclavicle -7.5886e-014 7.55382e-015
lhumerus -31.1889 6.98161 71.8062
lradius 48.57
lwrist 4.1141
lhand -23.9651 18.8217
lfingers 7.12502
lthumb 2.51102 48.7866
rfemur -28.7884 9.34169 13.7757
rtibia 34.386
rfoot -14.2421 -8.6133
rtoes -5.05887
lfemur -11.9179 -4.84509 -24.6539
ltibia 24.1776
lfoot -19.9699 2.47677
ltoes 10.8285
